<mxfile host="app.diagrams.net" modified="2024-01-09T10:43:15.794Z" agent="Mozilla/5.0 (Windows NT 10.0; Win64; x64) AppleWebKit/537.36 (KHTML, like Gecko) Chrome/120.0.0.0 Safari/537.36" etag="uGX56xQuKwTtpkaKYwc3" version="22.1.17" type="device">
  <diagram name="Page-1" id="Dw2hAZwYWTYQMUzMWkd8">
    <mxGraphModel dx="1195" dy="1772" grid="1" gridSize="10" guides="1" tooltips="1" connect="1" arrows="1" fold="1" page="1" pageScale="1" pageWidth="850" pageHeight="1100" math="0" shadow="0">
      <root>
        <mxCell id="0" />
        <mxCell id="1" parent="0" />
        <mxCell id="qYs5X8N02x8vPIV47UVa-1" value="" style="image;html=1;image=img/lib/clip_art/computers/Server_128x128.png" vertex="1" parent="1">
          <mxGeometry x="40" y="-1040" width="80" height="80" as="geometry" />
        </mxCell>
        <mxCell id="qYs5X8N02x8vPIV47UVa-2" value="" style="image;html=1;image=img/lib/clip_art/computers/Database_128x128.png" vertex="1" parent="1">
          <mxGeometry x="40" y="-800" width="80" height="80" as="geometry" />
        </mxCell>
        <mxCell id="qYs5X8N02x8vPIV47UVa-3" value="" style="verticalLabelPosition=bottom;sketch=0;aspect=fixed;html=1;verticalAlign=top;strokeColor=none;align=center;outlineConnect=0;shape=mxgraph.citrix.laptop_2;" vertex="1" parent="1">
          <mxGeometry x="440" y="-914.57" width="100" height="74.57" as="geometry" />
        </mxCell>
        <mxCell id="qYs5X8N02x8vPIV47UVa-4" value="" style="shape=image;html=1;verticalAlign=top;verticalLabelPosition=bottom;labelBackgroundColor=#ffffff;imageAspect=0;aspect=fixed;image=https://cdn1.iconfinder.com/data/icons/user-pictures/100/male3-128.png" vertex="1" parent="1">
          <mxGeometry x="660" y="-800" width="80" height="80" as="geometry" />
        </mxCell>
        <mxCell id="qYs5X8N02x8vPIV47UVa-5" value="" style="shape=image;html=1;verticalAlign=top;verticalLabelPosition=bottom;labelBackgroundColor=#ffffff;imageAspect=0;aspect=fixed;image=https://cdn1.iconfinder.com/data/icons/user-pictures/101/malecostume-128.png" vertex="1" parent="1">
          <mxGeometry x="660" y="-1040" width="80" height="80" as="geometry" />
        </mxCell>
        <mxCell id="qYs5X8N02x8vPIV47UVa-6" value="Web Server" style="text;html=1;strokeColor=none;fillColor=none;align=center;verticalAlign=middle;whiteSpace=wrap;rounded=0;fontSize=15;fontStyle=1" vertex="1" parent="1">
          <mxGeometry x="40" y="-960" width="80" height="40" as="geometry" />
        </mxCell>
        <mxCell id="qYs5X8N02x8vPIV47UVa-7" value="Database&lt;br&gt;Server" style="text;html=1;strokeColor=none;fillColor=none;align=center;verticalAlign=middle;whiteSpace=wrap;rounded=0;fontSize=15;fontStyle=1" vertex="1" parent="1">
          <mxGeometry x="40" y="-720" width="80" height="40" as="geometry" />
        </mxCell>
        <mxCell id="qYs5X8N02x8vPIV47UVa-8" value="User" style="text;html=1;strokeColor=none;fillColor=none;align=center;verticalAlign=middle;whiteSpace=wrap;rounded=0;fontSize=15;fontStyle=1" vertex="1" parent="1">
          <mxGeometry x="660" y="-720" width="80" height="40" as="geometry" />
        </mxCell>
        <mxCell id="qYs5X8N02x8vPIV47UVa-9" value="Admin" style="text;html=1;strokeColor=none;fillColor=none;align=center;verticalAlign=middle;whiteSpace=wrap;rounded=0;fontSize=15;fontStyle=1" vertex="1" parent="1">
          <mxGeometry x="660" y="-960" width="80" height="40" as="geometry" />
        </mxCell>
        <mxCell id="qYs5X8N02x8vPIV47UVa-10" value="Web App" style="text;html=1;strokeColor=none;fillColor=none;align=center;verticalAlign=middle;whiteSpace=wrap;rounded=0;fontSize=15;fontStyle=1" vertex="1" parent="1">
          <mxGeometry x="440" y="-840" width="100" height="40" as="geometry" />
        </mxCell>
        <mxCell id="qYs5X8N02x8vPIV47UVa-11" value="" style="image;html=1;image=img/lib/clip_art/computers/Network_128x128.png" vertex="1" parent="1">
          <mxGeometry x="240" y="-920.0000000000001" width="80" height="80" as="geometry" />
        </mxCell>
        <mxCell id="qYs5X8N02x8vPIV47UVa-12" value="Network" style="text;html=1;strokeColor=none;fillColor=none;align=center;verticalAlign=middle;whiteSpace=wrap;rounded=0;fontSize=15;fontStyle=1" vertex="1" parent="1">
          <mxGeometry x="240" y="-840.0000000000001" width="80" height="40" as="geometry" />
        </mxCell>
        <mxCell id="qYs5X8N02x8vPIV47UVa-13" value="" style="endArrow=classic;html=1;rounded=0;strokeWidth=5;dashed=1;strokeColor=#0000CC;" edge="1" parent="1" source="qYs5X8N02x8vPIV47UVa-2" target="qYs5X8N02x8vPIV47UVa-11">
          <mxGeometry width="50" height="50" relative="1" as="geometry">
            <mxPoint x="425" y="-980" as="sourcePoint" />
            <mxPoint x="475" y="-1030" as="targetPoint" />
          </mxGeometry>
        </mxCell>
        <mxCell id="qYs5X8N02x8vPIV47UVa-14" value="" style="endArrow=classic;html=1;rounded=0;strokeWidth=5;dashed=1;strokeColor=#009900;" edge="1" parent="1" source="qYs5X8N02x8vPIV47UVa-4" target="qYs5X8N02x8vPIV47UVa-3">
          <mxGeometry width="50" height="50" relative="1" as="geometry">
            <mxPoint x="550" y="-970" as="sourcePoint" />
            <mxPoint x="485" y="-1020" as="targetPoint" />
          </mxGeometry>
        </mxCell>
        <mxCell id="qYs5X8N02x8vPIV47UVa-15" value="" style="endArrow=classic;html=1;rounded=0;strokeWidth=5;dashed=1;strokeColor=#009900;" edge="1" parent="1" source="qYs5X8N02x8vPIV47UVa-5" target="qYs5X8N02x8vPIV47UVa-3">
          <mxGeometry width="50" height="50" relative="1" as="geometry">
            <mxPoint x="560" y="-960" as="sourcePoint" />
            <mxPoint x="495" y="-1010" as="targetPoint" />
          </mxGeometry>
        </mxCell>
        <mxCell id="qYs5X8N02x8vPIV47UVa-16" value="" style="endArrow=classic;html=1;rounded=0;strokeWidth=5;dashed=1;strokeColor=#0000CC;" edge="1" parent="1" source="qYs5X8N02x8vPIV47UVa-11" target="qYs5X8N02x8vPIV47UVa-3">
          <mxGeometry width="50" height="50" relative="1" as="geometry">
            <mxPoint x="435" y="-970" as="sourcePoint" />
            <mxPoint x="485" y="-1020" as="targetPoint" />
          </mxGeometry>
        </mxCell>
        <mxCell id="qYs5X8N02x8vPIV47UVa-17" value="" style="endArrow=classic;html=1;rounded=0;strokeWidth=5;dashed=1;strokeColor=#0000CC;" edge="1" parent="1" source="qYs5X8N02x8vPIV47UVa-1" target="qYs5X8N02x8vPIV47UVa-11">
          <mxGeometry width="50" height="50" relative="1" as="geometry">
            <mxPoint x="445" y="-960" as="sourcePoint" />
            <mxPoint x="495" y="-1010" as="targetPoint" />
          </mxGeometry>
        </mxCell>
      </root>
    </mxGraphModel>
  </diagram>
</mxfile>
